<svg viewBox="0 0 2548 997" fill="none" xmlns="http://www.w3.org/2000/svg">
  <path opacity="0.5" d="M481.096 67.2659C1261.82 178.739 2229.53 67.2659 2229.53 67.2659C2229.53 67.2659 2865.76 1132.31 2229.53 976.513C1593.29 820.719 964.343 1022.18 481.096 976.513C-2.15158 930.85 -299.628 -44.2075 481.096 67.2659Z" fill="#E7ECFF"/>
  <path d="M1868.38 603.67C1861.24 648.528 1836.14 689.486 1801.21 718.459C1798.79 720.362 1796.34 722.264 1793.88 724.166C1793.88 724.166 1793.75 724.166 1793.69 724.281C1769.45 742.714 1741.02 754.846 1710.94 759.589C1655.75 767.826 1600.02 751.218 1544.26 748.327C1444.34 743.114 1348.06 781.675 1249.62 799.329C1151.18 816.983 1035.26 806.939 972.942 728.827C972.569 728.396 972.22 727.945 971.896 727.477C952.144 702.194 939.642 672.118 924.076 643.963C921.374 639.035 918.615 634.241 915.723 629.505C888.036 584.666 847.352 547.931 826.287 499.706C805.229 451.062 805.956 395.742 828.285 347.668C848.228 305.474 883.298 272.62 917.492 240.888C919.719 238.853 921.869 236.817 924.076 234.782C953.444 207.54 982.837 180.272 1012.26 152.98C1028.43 138.046 1044.6 122.979 1061.41 108.693C1083.69 89.707 1106.81 71.8247 1132.08 57.0433C1193.54 20.746 1251.96 24.8742 1318.75 13.5551C1395.89 0.447754 1474.9 -10.9855 1549.97 18.7295C1593.74 36.0031 1631.36 65.5849 1668.27 94.6912C1674.25 99.4281 1680.22 104.089 1686.18 108.826C1719.95 135.459 1753.62 162.092 1786.9 189.353C1794.17 195.308 1801.49 201.414 1808.31 207.92C1818.9 218.022 1828.3 229.151 1834.34 242.372C1841.61 258.181 1843.45 275.835 1845.22 293.108C1847.7 317.421 1850.16 341.676 1852.6 365.874C1854.09 380.275 1855.5 394.676 1856.98 409.001C1860.32 441.658 1863.64 474.277 1866.95 506.859C1870.17 539.085 1873.44 571.692 1868.38 603.67Z" fill="#E7ECFF"/>
</svg>
